# xmcd
#
# Track frame offsets:
#	150
#	16266
#	35552
#	51875
#	66058
#	80080
#	96046
#	111238
#	130382
#	149176
#	168736
#	182352
#	199336
#
# Disc length: 2876 seconds
#
# Revision: 1
# Processed by: cddbd v1.5.2PL0 Copyright (c) Steve Scherf et al.
# Submitted via: EasyCDDAExtractor 15.3.0.1
#
DISCID=c00b3a0d
DTITLE=Laura Bryna - Trying To Be Me
DYEAR=2007
DGENRE=Country
TTITLE0=Life Is Good
TTITLE1=Maybe She Fell
TTITLE2=Set It On Fire
TTITLE3=Room 228
TTITLE4=Same Dog
TTITLE5=Make A Wish
TTITLE6=Out The Window
TTITLE7=640 Battlefield Dr 
TTITLE8=According To The Radio
TTITLE9=She Can't Save Him
TTITLE10=No Man's Land
TTITLE11=Smoke From A Bridge You Burned
TTITLE12=I Don't Have A Thing To Wear
EXTD=
EXTT0=
EXTT1=
EXTT2=
EXTT3=
EXTT4=
EXTT5=
EXTT6=
EXTT7=
EXTT8=
EXTT9=
EXTT10=
EXTT11=
EXTT12=
PLAYORDER=
